<?xml version="1.0" encoding="utf-8"?>
<!-- Generator: Adobe Illustrator 19.0.0, SVG Export Plug-In . SVG Version: 6.00 Build 0)  -->
<svg version="1.1" id="Layer_1" xmlns="http://www.w3.org/2000/svg" xmlns:xlink="http://www.w3.org/1999/xlink" x="0px" y="0px"
	 viewBox="228.1 226.9 74.9 49.1" style="enable-background:new 228.1 226.9 74.9 49.1;" xml:space="preserve">
<style type="text/css">
	.st0{display:none;}
	.st1{display:inline;}
	.st2{display:inline;fill:#FFFFFF;}
	.st3{fill:#3D545C;}
</style>
<g id="Layer_2" class="st0">
	<g id="XMLID_12_" class="st1">
		<path id="XMLID_20_" d="M36.7,41.9H-7.8l32.1-182.2h44.5L36.7,41.9z"/>
		<path id="XMLID_17_" d="M139.1-140.3c58.6,0,90,34.1,80,91.1S165.6,41.9,107,41.9H53.4l32.1-182.2H139.1L139.1-140.3z
			 M123.2-101.7L104.7,3.4h9.1c29.9,0,52.8-17.7,59-52.6s-10.5-52.6-40.4-52.6L123.2-101.7C123.2-101.8,123.2-101.7,123.2-101.7z"/>
		<path id="XMLID_15_" d="M295.4,27.1L273.8-77.5L252.7,42H210l32.1-182.2h57.8l25,115.3l65.9-115.3h57.8L416.5,42h-42.7l21.1-119.5
			L336.4,27.1H295.4L295.4,27.1z"/>
		<path id="XMLID_13_" d="M570-101.5l-40,16.9c-2.2-8.1-5.9-18-19.7-18c-8.6,0-15.2,5.2-16.5,12.2c-4.4,24.7,72.1,22.1,62.3,77.8
			C550.2,21,522,45.2,482.2,45.2c-40.9,0-52-29.7-54.3-43.5l40.5-18.5c3.1,10.7,11.3,20.3,23.7,20.3c10.7,0,17-4.7,18.4-12.8
			c4.3-24.2-71.6-22.1-61.3-80.4c5.8-32.8,33.2-54.1,69.4-54.1C557.6-143.6,567.7-115.3,570-101.5z"/>
	</g>
	<polygon id="XMLID_22_" class="st2" points="-47,-106.8 530,-89.7 -57,-75.9 	"/>
</g>
<g>
	<g>
		<g>
			<path class="st3" d="M260.5,271.6C260.5,271.7,260.5,271.7,260.5,271.6c0.1,0.4,0.2,0.7,0.2,1c0,0.3,0,0.6,0.1,0.9c0,0,0,0,0,0.1
				h10c0,0,0,0,0-0.1c0-0.3,0-0.6,0.1-0.9c0-0.3,0.1-0.6,0.2-0.9c0,0,0,0,0-0.1H260.5z M291.5,232.8h-51.3c-2.5,0-4.4,2-4.4,4.4
				v31.8c0,0.6,0.1,1.1,0.3,1.6c0.4,1.2,1.4,2.2,2.6,2.6c0.5,0.2,1,0.3,1.6,0.3h14.2c0,0,0,0,0-0.1c0-0.3-0.1-0.6-0.2-0.9
				c-0.1-0.3-0.3-0.6-0.5-0.9c0,0,0,0-0.1-0.1h-13.5c-1.4,0-2.5-1.1-2.5-2.5v-31.8c0-1.4,1.1-2.5,2.5-2.5h51.3
				c1.4,0,2.5,1.1,2.5,2.5V269c0,1.4-1.1,2.5-2.5,2.5h-13.7c0,0,0,0-0.1,0.1c-0.2,0.2-0.4,0.6-0.5,0.9c-0.1,0.3-0.2,0.6-0.2,0.9
				c0,0,0,0,0,0.1h14.4c0.6,0,1-0.1,1.5-0.3c1.2-0.4,2.2-1.4,2.6-2.6c0.2-0.5,0.3-1.1,0.3-1.6v-31.8
				C296,234.8,294,232.8,291.5,232.8z M272,271.7c-0.1,0.3-0.2,0.6-0.2,0.9c0,0.3-0.1,0.6-0.1,0.9c0,0,0,0,0,0.1h4.3c0,0,0,0,0-0.1
				c0-0.3,0.1-0.6,0.1-0.9c0.1-0.3,0.2-0.6,0.3-0.9c0,0,0,0,0-0.1L272,271.7C272,271.7,272,271.7,272,271.7z M259.8,273.5
				c0-0.3,0-0.6-0.1-0.9c0-0.3-0.1-0.6-0.2-0.9c0,0,0,0,0-0.1h-4.6c0,0,0,0,0,0.1c0.2,0.3,0.3,0.6,0.3,0.9c0.1,0.3,0.1,0.6,0.1,0.9
				c0,0,0,0,0,0.1L259.8,273.5C259.8,273.5,259.8,273.5,259.8,273.5z"/>
		</g>
	</g>
	<g>
		<g>
			<g>
				<path class="st3" d="M262.6,272.6c0,0-0.7,0-1.9,0c0-0.3-0.1-0.6-0.2-0.9c0,0,0,0,0-0.1c-0.8-3.3-3.7-4.9-6.5-4.9
					c-0.3,0-0.5,0.2-0.5,0.5c0,0.3,0.2,0.5,0.5,0.5c2.3,0,4.7,1.2,5.5,3.9c0,0,0,0,0,0.1c0.1,0.3,0.2,0.6,0.2,0.9h-4.4
					c-0.1-0.3-0.2-0.6-0.3-0.9c0,0,0,0,0-0.1c-0.7-1.2-2-1.8-3.3-1.8c-0.3,0-0.5,0.2-0.5,0.5c0,0.3,0.2,0.5,0.5,0.5
					c0.7,0,1.5,0.2,2.1,0.8c0,0,0,0,0.1,0.1c0.2,0.2,0.4,0.6,0.5,0.9h-14.1c-1.7,0-3.1-0.7-4.2-1.9c-2.9-3.2-3.6-9.9-0.3-16
					c0.3-0.6,0.6-1.1,1-1.6c0,1.5,0.3,2.9,1,4.1c2,3.9,7,6.4,14.6,6.4c5.8,0,8.3,3.1,9.4,5.6c0.2,0.3,0.3,0.6,0.3,0.9
					c0.2,0.6,0.3,1.1,0.4,1.5C262.5,272.2,262.6,272.6,262.6,272.6z"/>
			</g>
		</g>
		<g>
			<g>
				<path class="st3" d="M263.5,272.6c0,0,0-0.3-0.1-0.9c-0.1-0.4-0.2-1-0.4-1.6c-0.1-0.3-0.2-0.6-0.3-0.9
					c-1.2-2.8-3.9-6.4-10.3-6.4c-4.6,0-8.4-0.9-11-2.8c-2-1.4-3.3-3.3-3.6-5.6c0-0.4-0.1-0.8-0.1-1.2v-2.9l-1.6,2.4
					c-0.1,0.1-0.2,0.2-0.2,0.3c-3.9,6.1-3.7,12.6-1.7,16.4c1.1,2,2.7,3.4,4.6,3.9c0.5,0.1,1,0.2,1.6,0.2h14.2c0-0.3-0.1-0.6-0.2-0.9
					c-0.1-0.3-0.3-0.6-0.5-0.9h-13.6c-1.8,0-3.4-1.1-4.4-2.9c0,0-0.1-0.1-0.1-0.2c-1.5-2.7-1.8-7.3,0.1-11.8
					c0.1-0.3,0.3-0.6,0.4-0.9c0.3,1.1,0.8,2.2,1.5,3.1c2.6,3.5,7.8,5.6,14.6,5.6c7.1,0,8.8,5,9.3,7.2c0,0,0,0,0,0.1h-1
					c0.1,0.3,0.1,0.6,0.2,0.9c0,0.3,0,0.6,0.1,0.9h2.8L263.5,272.6z M259.7,272.6c0-0.3-0.1-0.6-0.2-0.9H255
					c0.2,0.3,0.3,0.6,0.3,0.9c0.1,0.3,0.1,0.6,0.1,0.9h4.3C259.8,273.2,259.8,272.9,259.7,272.6z"/>
			</g>
		</g>
	</g>
	<g>
		<g>
			<g>
				<path class="st3" d="M295.7,270.7c-1.1,1.2-2.5,1.9-4.1,1.9h-14.3c0.1-0.3,0.3-0.6,0.5-0.9c0,0,0,0,0.1-0.1
					c0.6-0.6,1.3-0.8,2.1-0.8c0.3,0,0.5-0.2,0.5-0.5c0-0.3-0.2-0.5-0.5-0.5c-1.3,0-2.6,0.6-3.3,1.8c0,0,0,0,0,0.1
					c-0.2,0.3-0.3,0.6-0.3,0.9h-4.4c0-0.3,0.1-0.6,0.2-0.9c0,0,0,0,0-0.1c0.8-2.7,3.2-3.9,5.5-3.9c0.3,0,0.5-0.2,0.5-0.5
					c0-0.3-0.2-0.5-0.5-0.5c-2.8,0-5.7,1.5-6.5,4.9c0,0,0,0,0,0.1c-0.1,0.3-0.1,0.6-0.2,0.9c-1,0-1.7,0-1.7,0s0-0.4,0.1-1
					c0.1-0.4,0.2-0.9,0.4-1.5c0.1-0.3,0.2-0.5,0.3-0.8c1.1-2.6,3.6-5.7,9.5-5.7c7.5,0,12.5-2.5,14.5-6.3c0.7-1.3,1-2.6,1-4.1
					c0.3,0.5,0.7,1,0.9,1.5C299.3,260.8,298.6,267.5,295.7,270.7z"/>
			</g>
		</g>
		<g>
			<g>
				<path class="st3" d="M296,252.9c-0.1-0.1-0.2-0.2-0.2-0.3l-1.6-2.4v2.9c0,0.5,0,0.9-0.1,1.4c-0.3,2.2-1.6,4-3.5,5.4
					c-2.6,1.8-6.4,2.8-11,2.8c-6.4,0-9.2,3.6-10.3,6.4c-0.1,0.3-0.2,0.6-0.3,0.9c-0.2,0.6-0.3,1.1-0.4,1.5c-0.1,0.6-0.1,0.9-0.1,0.9
					l0,0.9h2.5c0-0.3,0-0.6,0.1-0.9c0-0.3,0.1-0.6,0.2-0.9h-0.8c0,0,0,0,0-0.1c0.4-2.2,2.2-7.2,9.3-7.2c6.8,0,11.9-2,14.5-5.5
					c0.7-0.9,1.2-2,1.5-3.2c0.2,0.3,0.3,0.6,0.4,0.9c2,4.6,1.6,9.2,0.1,11.9c0,0.1-0.1,0.2-0.1,0.2c-1.1,1.9-2.6,2.9-4.4,2.9h-13.8
					c-0.2,0.2-0.4,0.6-0.5,0.9c-0.1,0.3-0.2,0.6-0.2,0.9h14.5c0.5,0,1-0.1,1.5-0.2c1.9-0.5,3.5-1.8,4.6-3.9
					C299.7,265.6,299.9,259,296,252.9z M271.8,272.6c0,0.3-0.1,0.6-0.1,0.9h4.3c0-0.3,0.1-0.6,0.1-0.9c0.1-0.3,0.2-0.6,0.3-0.9H272
					C272,272,271.9,272.3,271.8,272.6z"/>
			</g>
		</g>
	</g>
	<g>
		<ellipse class="st3" cx="265.8" cy="259.5" rx="5.7" ry="3.2"/>
	</g>
	<g>
		<ellipse class="st3" cx="265.8" cy="260.3" rx="2.9" ry="3.5"/>
	</g>
	<g>
		<path class="st3" d="M261.9,270.2c-0.3,0-0.5-0.2-0.5-0.5c0-0.3,0.2-0.5,0.5-0.5c1.5,0,2.4-0.6,2.9-1.7c0.4-1.1,0.4-2.5,0.4-3.6
			v-0.1c0-0.3,0.2-0.5,0.5-0.5s0.5,0.2,0.5,0.5v0.1c0,1.2,0,2.7-0.5,4C265.1,269.4,263.8,270.2,261.9,270.2z"/>
	</g>
	<g>
		<path class="st3" d="M269.7,270.2c-1.9,0-3.2-0.8-3.9-2.3c-0.5-1.3-0.5-2.8-0.5-4v-0.1c0-0.3,0.2-0.5,0.5-0.5
			c0.2,0,0.5,0.2,0.5,0.5v0.1c0,1.1,0,2.5,0.4,3.6c0.5,1.2,1.4,1.7,2.9,1.7c0.3,0,0.5,0.2,0.5,0.5
			C270.1,269.9,269.9,270.2,269.7,270.2z"/>
	</g>
	<g>
		<path class="st3" d="M252,233.8c-5.5,0-9.2-2.8-13.6-4.3c-4.4-1.4-9.8,10.9-1.7,18.3c0,0,4.4,5.3,3.5-2
			C239.4,238.3,246.2,233.8,252,233.8z"/>
		<path class="st3" d="M246.8,232.8c-1.5-0.5-2.8-1.1-4.2-1.7c-1.3-0.6-2.7-1.2-4.1-1.7c-1.5-0.5-3.2,0.6-4.4,2.7
			c-1.2,2.1-1.8,4.8-1.5,7.5c0.2,2,0.9,4.8,3.2,7.4c0.3,0.3,0.6,0.6,0.9,0.9c0,0,0.5,0.6,1.1,1.1c0.5,0.4,1.1,0.8,1.7,0.8
			c0.1,0,0.2,0,0.3-0.1c0.7-0.3,0.9-1.6,0.7-3.9c-0.3-2.9,0.5-5.6,2.4-7.8c1.3-1.4,2.9-2.5,4.7-3.2c1.5-0.6,3-0.9,4.5-0.9v-0.2
			C250.1,233.7,248.4,233.3,246.8,232.8z M242.6,237.8c-2,2.2-2.8,4.9-2.4,7.9c0.3,2.8-0.1,3.5-0.6,3.7c-0.6,0.2-1.3-0.3-1.9-0.9
			c-0.5-0.5-0.9-0.9-0.9-0.9c-0.3-0.3-0.7-0.7-1-1.1c-3.9-4.4-3.8-10.6-1.5-14.4c1-1.7,2.3-2.7,3.5-2.7c0.2,0,0.5,0,0.7,0.1
			c1.4,0.5,2.8,1.1,4.1,1.7c1.2,0.6,2.4,1.1,3.7,1.5c1.3,0.5,2.7,0.8,4.3,1c-1.2,0.2-2.3,0.5-3.4,0.9
			C245.3,235.5,243.8,236.5,242.6,237.8z"/>
	</g>
	<g>
		<path class="st3" d="M279.5,233.8c5.5,0,9.2-2.8,13.6-4.3c4.4-1.4,9.8,10.9,1.7,18.3c0,0-4.4,5.3-3.5-2S285.3,233.8,279.5,233.8z"
			/>
		<path class="st3" d="M297.4,232.1c-1.2-2.1-2.9-3.2-4.4-2.7c-1.4,0.5-2.8,1.1-4.1,1.7c-1.3,0.6-2.7,1.2-4.2,1.7
			c-1.6,0.5-3.3,0.9-5.3,0.9v0.2c1.5,0,3.1,0.3,4.5,0.9c1.8,0.7,3.5,1.8,4.7,3.2c1.9,2.2,2.8,4.8,2.4,7.8c-0.3,2.4-0.1,3.6,0.7,3.9
			c0.1,0,0.2,0.1,0.3,0.1c0.6,0,1.3-0.5,1.8-1c0.5-0.4,0.8-0.8,0.8-0.9c0.4-0.4,0.8-0.8,1.1-1.1c2.2-2.5,2.8-5.2,3-7.1
			C299.2,236.9,298.7,234.2,297.4,232.1z M296,246.4c-0.4,0.5-0.8,0.9-1.3,1.3c0,0-0.3,0.3-0.7,0.8c-0.6,0.6-1.5,1.3-2.1,1.1
			c-0.4-0.2-0.9-1-0.6-3.7c0.3-2.9-0.5-5.7-2.5-7.9c-1.2-1.3-2.7-2.4-4.4-3.1c-1.1-0.5-2.2-0.8-3.4-0.9c1.5-0.2,2.9-0.5,4.3-1
			c1.3-0.4,2.5-1,3.7-1.5c1.3-0.6,2.7-1.2,4.1-1.7c1.4-0.4,3,0.6,4.2,2.6C299.5,235.9,299.6,241.9,296,246.4z"/>
	</g>
	<path class="st3" d="M255.7,241.2h-9.2c-1.9,0-3.5,1.6-3.5,3.5v9.2c0,1.9,1.6,3.5,3.5,3.5h9.2c1.9,0,3.5-1.6,3.5-3.5v-9.2
		C259.2,242.7,257.6,241.2,255.7,241.2z M256.6,249c-1.5,1.5-3.4,2.3-5.5,2.3s-4-0.8-5.5-2.3c-0.4-0.4-0.4-1,0-1.4s1-0.4,1.4,0
		c1.1,1.1,2.6,1.7,4.1,1.7s3-0.6,4.1-1.7c0.4-0.4,1-0.4,1.4,0C257,247.9,257,248.6,256.6,249z"/>
	<g>
		<path class="st3" d="M280.5,251.2c-2.1,0-4-0.8-5.5-2.3c-0.4-0.4-0.4-1,0-1.4s1-0.4,1.4,0c1.1,1.1,2.6,1.7,4.1,1.7s3-0.6,4.1-1.7
			c0.4-0.4,1-0.4,1.4,0c0.4,0.4,0.4,1,0,1.4C284.5,250.4,282.5,251.2,280.5,251.2z"/>
	</g>
</g>
</svg>
