<?xml version="1.0" encoding="utf-8"?>
<!-- Generator: Adobe Illustrator 19.0.0, SVG Export Plug-In . SVG Version: 6.00 Build 0)  -->
<svg version="1.1" id="Layer_1" xmlns="http://www.w3.org/2000/svg" xmlns:xlink="http://www.w3.org/1999/xlink" x="0px" y="0px"
	 viewBox="8 144.9 515.1 211.1" style="enable-background:new 8 144.9 515.1 211.1;" xml:space="preserve">
<style type="text/css">
	.st0{display:none;fill:#3D545C;}
	.st1{display:none;}
	.st2{display:inline;fill:none;stroke:#FFFFFF;stroke-width:10;stroke-miterlimit:10;}
	.st3{display:inline;fill:#FFFFFF;stroke:#FFFFFF;stroke-width:9.117;stroke-linecap:round;stroke-miterlimit:10;}
	.st4{display:inline;fill:#FFFFFF;}
	.st5{display:inline;fill:none;stroke:#FFFFFF;stroke-width:5;stroke-linecap:round;stroke-miterlimit:10;}
	.st6{display:inline;fill:#FFFFFF;stroke:#FFFFFF;stroke-miterlimit:10;}
	.st7{display:inline;fill:none;stroke:#FFFFFF;stroke-width:10;stroke-linecap:round;stroke-miterlimit:10;}
	.st8{display:inline;fill:none;stroke:#3D545C;stroke-width:5;stroke-linecap:round;stroke-miterlimit:10;}
	.st9{fill:#FFFFFF;}
	.st10{fill:#FFFFFF;stroke:#FFFFFF;stroke-width:0.4934;stroke-miterlimit:10;}
</style>
<rect x="8" y="-7.1" class="st0" width="515.1" height="515.1"/>
<g class="st1">
	<path class="st2" d="M398.5,350.9h-264c-9.9,0-18-8.1-18-18v-164c0-9.9,8.1-18,18-18h264c9.9,0,18,8.1,18,18v164
		C416.5,342.8,408.4,350.9,398.5,350.9z"/>
	<path class="st3" d="M196.5,304.4c-51,0-80-22.5-80-54c-30.5,45-15,100.5,18,100.5s115,0,115,0S247.5,304.4,196.5,304.4z"/>
	<path class="st3" d="M336.7,304.4c51,0,80-22.5,80-54c30.5,45,15,100.5-18,100.5s-115,0-115,0S285.7,304.4,336.7,304.4z"/>
	<ellipse class="st4" cx="266" cy="283.5" rx="29.4" ry="16.6"/>
	<ellipse class="st4" cx="266" cy="287.4" rx="15" ry="18"/>
	<path class="st5" d="M266,305.4c0,12.2,0.3,30.3-20,30.3"/>
	<path class="st5" d="M266,305.4c0,12.2-0.3,30.3,20,30.3"/>
	<path class="st6" d="M195.3,150.9c-28.7,0-47.3-14.6-70-22c-22.7-7.3-50.3,56-8.8,94c0,0,22.7,27.5,18.2-10.5
		S165.2,150.9,195.3,150.9z"/>
	<path class="st6" d="M336.7,150.9c28.7,0,47.3-14.6,70-22c22.7-7.3,50.3,56,8.8,94c0,0-22.7,27.5-18.2-10.5
		S366.8,150.9,336.7,150.9z"/>
	<path class="st6" d="M214,188.9h-47.3c-9.9,0-18,8.1-18,18v47.3c0,9.9,8.1,18,18,18H214c9.9,0,18-8.1,18-18v-47.3
		C232,197,223.9,188.9,214,188.9z M218.6,229c-7.6,7.6-17.6,11.7-28.3,11.7s-20.7-4.2-28.3-11.7c-2-2-2-5.1,0-7.1s5.1-2,7.1,0
		c5.7,5.7,13.2,8.8,21.2,8.8c8,0,15.5-3.1,21.2-8.8c2-2,5.1-2,7.1,0C220.6,223.9,220.6,227,218.6,229z"/>
	<path class="st7" d="M316.9,225.4c13.7,13.7,35.8,13.7,49.5,0"/>
	<path class="st8" d="M237.7,356.9c0-24.2-17.3-33.6-32.3-33.6"/>
	<path class="st8" d="M210.4,356.9c0-12.8-9.1-17.7-17-17.7"/>
	<path class="st8" d="M294.3,356.9c0-24.2,17.3-33.6,32.3-33.6"/>
	<path class="st8" d="M321.6,356.9c0-12.8,9.1-17.7,17-17.7"/>
</g>
<g>
	<g>
		<g>
			<path class="st9" d="M101.6,301.6c0,0.1,0,0.1,0.1,0.2c0.2,0.7,0.3,1.5,0.4,2.3c0.1,0.7,0.1,1.5,0.2,2.3c0,0.1,0,0.1,0,0.2h25.5
				c0-0.1,0-0.1,0-0.2c0-0.8,0.1-1.5,0.2-2.3c0.1-0.8,0.2-1.5,0.4-2.3c0-0.1,0-0.1,0.1-0.2H101.6z M180.4,202.9H50.1
				c-6.3,0-11.3,5.1-11.3,11.3v80.9c0,1.4,0.3,2.7,0.7,4c1.1,3.1,3.6,5.5,6.6,6.6c1.2,0.5,2.6,0.7,4,0.7h36.2c0-0.1,0-0.1,0-0.2
				c0-0.8-0.2-1.6-0.4-2.3c-0.3-0.9-0.7-1.6-1.3-2.3c-0.1-0.1-0.1-0.1-0.2-0.2H50.1c-3.5,0-6.4-2.9-6.4-6.4v-80.9
				c0-3.5,2.9-6.4,6.4-6.4h130.3c3.5,0,6.4,2.9,6.4,6.4v80.9c0,3.5-2.9,6.4-6.4,6.4h-34.8c-0.1,0.1-0.1,0.1-0.2,0.2
				c-0.5,0.6-1,1.4-1.3,2.3c-0.2,0.7-0.4,1.4-0.4,2.3c0,0.1,0,0.1,0,0.2h36.7c1.4,0,2.6-0.2,3.8-0.7c3.1-1.1,5.5-3.5,6.7-6.6
				c0.5-1.3,0.8-2.7,0.8-4.1v-80.9C191.7,208,186.7,202.9,180.4,202.9z M130.9,301.9c-0.2,0.7-0.4,1.5-0.5,2.3
				c-0.1,0.7-0.2,1.5-0.2,2.3c0,0.1,0,0.1,0,0.2h11c0-0.1,0-0.1,0-0.2c0-0.8,0.2-1.6,0.3-2.3c0.2-0.8,0.5-1.6,0.9-2.3
				c0-0.1,0.1-0.1,0.1-0.2H131C130.9,301.7,130.9,301.8,130.9,301.9z M99.8,306.4c0-0.8-0.1-1.5-0.2-2.3c-0.1-0.8-0.3-1.5-0.5-2.3
				c0-0.1,0-0.1-0.1-0.2H87.4c0,0.1,0.1,0.1,0.1,0.2c0.4,0.7,0.7,1.4,0.9,2.3c0.2,0.7,0.3,1.4,0.3,2.3c0,0.1,0,0.1,0,0.2h11
				C99.8,306.5,99.8,306.4,99.8,306.4z"/>
		</g>
	</g>
	<g>
		<g>
			<g>
				<path class="st9" d="M106.9,304.1c0,0-1.8,0-4.8,0c-0.1-0.8-0.2-1.5-0.4-2.3c0-0.1,0-0.1-0.1-0.2c-2.1-8.5-9.4-12.4-16.6-12.4
					c-0.7,0-1.2,0.6-1.2,1.2c0,0.7,0.6,1.2,1.2,1.2c5.9,0,11.9,3.1,14,9.9c0,0.1,0,0.1,0.1,0.2c0.2,0.7,0.4,1.5,0.5,2.3H88.4
					c-0.2-0.8-0.5-1.6-0.9-2.3c0-0.1-0.1-0.1-0.1-0.2c-1.8-3.1-5.1-4.5-8.3-4.5c-0.7,0-1.2,0.6-1.2,1.2c0,0.7,0.6,1.2,1.2,1.2
					c1.8,0,3.8,0.6,5.3,2.1c0.1,0.1,0.1,0.1,0.2,0.2c0.5,0.6,1,1.4,1.3,2.3H50.1c-4.2,0-7.8-1.8-10.6-4.9
					c-7.4-8.2-9.2-25.1-0.7-40.6c0.7-1.4,1.6-2.7,2.5-4.1c0,3.8,0.8,7.3,2.5,10.4c5.1,9.9,17.9,16.2,37,16.2
					c14.7,0,21.1,7.8,24,14.3c0.4,0.8,0.7,1.6,0.9,2.4c0.5,1.4,0.8,2.7,1,3.8C106.8,303.2,106.9,304.1,106.9,304.1z"/>
			</g>
		</g>
		<g>
			<g>
				<path class="st9" d="M109.1,304c0,0,0-0.9-0.3-2.4c-0.2-1.1-0.5-2.5-1-4c-0.2-0.8-0.5-1.5-0.9-2.4c-3-7.2-9.9-16.3-26.3-16.3
					c-11.6,0-21.3-2.4-27.9-7.1c-5.2-3.6-8.3-8.5-9.1-14.2c-0.1-1-0.2-2-0.2-3.1v-7.3l-4.1,6.1c-0.2,0.3-0.4,0.6-0.6,0.9
					c-10,15.5-9.4,32.1-4.2,41.8c2.7,5.2,6.8,8.6,11.6,9.8c1.3,0.3,2.6,0.5,4,0.5h36.2c0-0.8-0.2-1.6-0.4-2.3
					c-0.3-0.9-0.7-1.6-1.3-2.3H50.1c-4.6,0-8.6-2.7-11.3-7.5c-0.1-0.1-0.2-0.3-0.2-0.4c-3.7-6.9-4.7-18.5,0.2-30.1
					c0.3-0.8,0.7-1.6,1.1-2.4c0.8,2.9,2.1,5.5,3.8,7.9c6.6,8.9,19.7,14.2,37,14.2c18,0,22.5,12.6,23.6,18.2c0,0.1,0,0.1,0,0.2h-2.6
					c0.2,0.7,0.3,1.5,0.4,2.3c0.1,0.7,0.1,1.5,0.2,2.3h7L109.1,304z M99.6,304.1c-0.1-0.8-0.3-1.5-0.5-2.3H87.5
					c0.4,0.7,0.7,1.4,0.9,2.3c0.2,0.7,0.3,1.4,0.3,2.3h11C99.7,305.6,99.7,304.8,99.6,304.1z"/>
			</g>
		</g>
	</g>
	<g>
		<g>
			<g>
				<path class="st9" d="M191,299.3c-2.8,3-6.4,4.8-10.5,4.8h-36.3c0.3-0.9,0.7-1.6,1.3-2.3c0.1-0.1,0.1-0.1,0.2-0.2
					c1.4-1.5,3.4-2.1,5.3-2.1c0.7,0,1.2-0.6,1.2-1.2c0-0.7-0.6-1.2-1.2-1.2c-3.2,0-6.5,1.5-8.3,4.5c0,0.1-0.1,0.1-0.1,0.2
					c-0.4,0.7-0.7,1.4-0.9,2.3h-11.1c0.1-0.8,0.3-1.5,0.5-2.3c0-0.1,0-0.1,0.1-0.2c2.1-6.8,8-9.9,14-9.9c0.7,0,1.2-0.6,1.2-1.2
					c0-0.7-0.6-1.2-1.2-1.2c-7.2,0-14.4,3.9-16.6,12.4c0,0.1,0,0.1-0.1,0.2c-0.2,0.7-0.3,1.5-0.4,2.3c-2.6,0-4.2,0-4.2,0
					s0-1,0.3-2.5c0.2-1,0.5-2.3,1-3.8c0.2-0.7,0.5-1.3,0.8-2c2.8-6.6,9.2-14.6,24.1-14.6c19,0,31.8-6.3,36.9-16.1
					c1.7-3.2,2.5-6.7,2.5-10.5c0.9,1.3,1.7,2.6,2.4,3.9C200.3,274.1,198.5,291.2,191,299.3z"/>
			</g>
		</g>
		<g>
			<g>
				<path class="st9" d="M191.7,254.1c-0.2-0.3-0.4-0.5-0.5-0.8l-4.1-6.1v7.3c0,1.2-0.1,2.4-0.3,3.5c-0.9,5.5-4,10.2-9,13.8
					c-6.6,4.6-16.2,7.1-27.9,7.1c-16.4,0-23.3,9.2-26.3,16.4c-0.3,0.8-0.6,1.6-0.8,2.4c-0.5,1.5-0.8,2.9-1,3.9
					c-0.3,1.4-0.3,2.3-0.3,2.4l-0.1,2.3h6.4c0-0.8,0.1-1.5,0.2-2.3c0.1-0.8,0.2-1.5,0.4-2.3h-2c0-0.1,0-0.1,0-0.2
					c1.1-5.6,5.5-18.2,23.6-18.2c17.2,0,30.3-5.2,36.9-14.1c1.8-2.4,3.1-5.1,3.9-8c0.4,0.8,0.7,1.5,1,2.3c5,11.7,4,23.4,0.3,30.3
					c-0.1,0.2-0.2,0.4-0.3,0.6c-2.7,4.8-6.7,7.4-11.3,7.4h-35.1c-0.5,0.6-1,1.4-1.3,2.3c-0.2,0.7-0.4,1.4-0.4,2.3h36.8
					c1.3,0,2.6-0.2,3.8-0.5c4.8-1.2,9-4.6,11.8-9.9C201.2,286.2,201.8,269.6,191.7,254.1z M130.4,304.1c-0.1,0.7-0.2,1.5-0.2,2.3h11
					c0-0.8,0.2-1.6,0.3-2.3c0.2-0.8,0.5-1.6,0.9-2.3h-11.5C130.7,302.6,130.5,303.3,130.4,304.1z"/>
			</g>
		</g>
	</g>
	<g>
		<ellipse class="st9" cx="115" cy="270.9" rx="14.5" ry="8.2"/>
	</g>
	<g>
		<ellipse class="st9" cx="115" cy="272.8" rx="7.4" ry="8.9"/>
	</g>
	<g>
		<path class="st9" d="M105.1,297.9c-0.7,0-1.2-0.6-1.2-1.2c0-0.7,0.6-1.2,1.2-1.2c3.9,0,6.2-1.4,7.5-4.4c1.1-2.7,1.1-6.3,1.1-9.1
			v-0.2c0-0.7,0.6-1.2,1.2-1.2s1.2,0.6,1.2,1.2v0.2c0,3.1,0,6.9-1.3,10.1C113.3,295.9,110,297.9,105.1,297.9z"/>
	</g>
	<g>
		<path class="st9" d="M124.9,297.9c-4.8,0-8.1-2-9.8-5.9c-1.3-3.2-1.3-7-1.3-10.1v-0.2c0-0.7,0.6-1.2,1.2-1.2s1.2,0.6,1.2,1.2v0.2
			c0,2.9,0,6.4,1.1,9.1c1.3,3,3.6,4.4,7.5,4.4c0.7,0,1.2,0.6,1.2,1.2C126.1,297.3,125.5,297.9,124.9,297.9z"/>
	</g>
	<g>
		<path class="st9" d="M80.1,205.4c-14.1,0-23.4-7.2-34.5-10.8c-11.2-3.6-24.8,27.6-4.3,46.4c0,0,11.2,13.6,9-5.2
			C48,217,65.2,205.4,80.1,205.4z"/>
		<path class="st9" d="M66.8,202.9c-3.8-1.2-7.2-2.8-10.7-4.3c-3.4-1.5-6.8-3.1-10.5-4.3c-3.8-1.2-8,1.4-11.2,6.8
			c-3.1,5.3-4.5,12.3-3.9,19c0.5,5.1,2.3,12.2,8.2,18.7c0.7,0.8,1.5,1.5,2.3,2.3c0.1,0.1,1.2,1.5,2.7,2.7c1.3,1.1,2.9,2.1,4.2,2.1
			c0.3,0,0.6,0,0.9-0.2c1.8-0.8,2.4-4.1,1.7-10c-0.9-7.4,1.2-14.2,6.1-19.7c3.2-3.6,7.4-6.4,12-8.2c3.7-1.4,7.6-2.2,11.5-2.2v-0.5
			C75.2,205.2,70.8,204.3,66.8,202.9z M56.2,215.7c-5,5.6-7.1,12.5-6.2,20.1c0.8,7-0.3,9-1.4,9.5c-1.4,0.6-3.4-0.8-4.9-2.2
			c-1.3-1.2-2.3-2.3-2.3-2.4c-0.9-0.9-1.8-1.8-2.6-2.7c-9.8-11.3-9.6-26.9-3.9-36.7c2.5-4.3,5.8-6.8,8.9-6.8c0.6,0,1.2,0.1,1.7,0.3
			c3.6,1.2,7.1,2.7,10.4,4.2c3,1.4,6.1,2.7,9.3,3.9c3.3,1.2,6.9,2.1,10.8,2.5c-3,0.4-5.9,1.2-8.7,2.4
			C63,209.7,59.2,212.4,56.2,215.7z"/>
	</g>
	<g>
		<path class="st9" d="M149.9,205.4c14.1,0,23.4-7.2,34.5-10.8c11.2-3.6,24.8,27.6,4.3,46.4c0,0-11.2,13.6-9-5.2
			S164.7,205.4,149.9,205.4z"/>
		<path class="st9" d="M195.5,201.1c-3.1-5.4-7.4-8-11.2-6.8c-3.6,1.2-7.1,2.7-10.5,4.3c-3.4,1.6-6.9,3.1-10.7,4.3
			c-4,1.3-8.4,2.2-13.4,2.2v0.5c3.9,0,7.9,0.8,11.5,2.2c4.6,1.8,8.8,4.6,12,8.2c4.9,5.5,7,12.3,6.1,19.7c-0.7,6-0.2,9.2,1.7,10
			c0.3,0.1,0.6,0.2,0.9,0.2c1.5,0,3.4-1.3,4.7-2.6c1.2-1.1,2-2.1,2.1-2.2c1-1,2-1.9,2.8-2.9c5.5-6.4,7.2-13.2,7.7-18.1
			C200,213.4,198.6,206.4,195.5,201.1z M191.7,237.4c-1,1.2-2,2.3-3.2,3.4c0,0-0.7,0.9-1.8,1.9c-1.6,1.5-3.9,3.3-5.4,2.7
			c-1.1-0.5-2.2-2.5-1.4-9.5c0.9-7.5-1.3-14.5-6.3-20.1c-3-3.3-6.8-6-11.1-7.9c-2.8-1.2-5.7-2-8.7-2.4c3.9-0.4,7.4-1.3,10.8-2.5
			c3.2-1.1,6.3-2.5,9.3-3.9c3.3-1.5,6.8-3.1,10.4-4.2c3.5-1.1,7.6,1.4,10.6,6.5C200.7,210.9,201,226.1,191.7,237.4z"/>
	</g>
	<path class="st10" d="M89.3,224.2H66c-4.9,0-8.9,4-8.9,8.9v23.4c0,4.9,4,8.9,8.9,8.9h23.4c4.9,0,8.9-4,8.9-8.9v-23.4
		C98.2,228.2,94.2,224.2,89.3,224.2z M91.6,244c-3.7,3.7-8.7,5.8-14,5.8c-5.3,0-10.2-2.1-14-5.8c-1-1-1-2.5,0-3.5c1-1,2.5-1,3.5,0
		c2.8,2.8,6.5,4.3,10.5,4.3c4,0,7.7-1.5,10.5-4.3c1-1,2.5-1,3.5,0C92.6,241.4,92.6,243,91.6,244z"/>
	<g>
		<path class="st9" d="M152.3,249.7c-5.3,0-10.2-2.1-14-5.8c-1-1-1-2.5,0-3.5c1-1,2.5-1,3.5,0c2.8,2.8,6.5,4.3,10.5,4.3
			c4,0,7.7-1.5,10.5-4.3c1-1,2.5-1,3.5,0c1,1,1,2.5,0,3.5C162.6,247.7,157.6,249.7,152.3,249.7z"/>
	</g>
</g>
<g>
	<path class="st9" d="M237.6,261.8h-8.5c-1,0-1.9-0.8-1.9-1.9v-28.1c0-1-0.8-1.9-1.9-1.9h-6.2c-1,0-1.9,0.8-1.9,1.9v37
		c0,1,0.8,1.9,1.9,1.9h18.5c1,0,1.9-0.8,1.9-1.9v-5.2C239.5,262.7,238.7,261.8,237.6,261.8z"/>
	<path class="st9" d="M278.5,268.3l-12.8-37c-0.3-0.8-1-1.3-1.8-1.3h-7.8c-0.8,0-1.5,0.5-1.8,1.3l-12.8,37c-0.4,1.2,0.5,2.5,1.8,2.5
		h6c0.8,0,1.5-0.5,1.8-1.3l2.1-6.6c0.3-0.8,1-1.3,1.8-1.3h10.1c0.8,0,1.5,0.5,1.8,1.3l2.1,6.6c0.2,0.8,1,1.3,1.8,1.3h6
		C278,270.7,278.9,269.5,278.5,268.3z M261.4,253.4h-2.7c-1.3,0-2.1-1.2-1.8-2.4l1.3-4.5c0.5-1.8,3-1.8,3.6,0l1.3,4.5
		C263.5,252.2,262.6,253.4,261.4,253.4z"/>
	<path class="st9" d="M311.3,261.9h-12.9c-1.5,0-2.4-1.7-1.5-2.9l15.8-22.3c0.2-0.3,0.3-0.7,0.3-1.1v-3.8c0-1-0.8-1.9-1.9-1.9h-27.3
		c-1,0-1.9,0.8-1.9,1.9v5.1c0,1,0.8,1.9,1.9,1.9H296c1.5,0,2.4,1.7,1.5,2.9l-15.6,22.2c-0.2,0.3-0.3,0.7-0.3,1.1v3.9
		c0,1,0.8,1.9,1.9,1.9h27.9c1,0,1.9-0.8,1.9-1.9v-5.1C313.1,262.8,312.3,261.9,311.3,261.9z"/>
	<path class="st9" d="M347.1,230h-6.7c-0.7,0-1.4,0.4-1.7,1.1l-4.2,8.7c-0.7,1.4-2.7,1.4-3.4,0l-4.1-8.7c-0.3-0.7-1-1.1-1.7-1.1
		h-6.8c-1.4,0-2.3,1.5-1.6,2.8l10.7,19.2c0.2,0.3,0.2,0.6,0.2,0.9v16.1c0,1,0.8,1.9,1.9,1.9h6.2c1,0,1.9-0.8,1.9-1.9v-16.1
		c0-0.3,0.1-0.6,0.2-0.9l10.7-19.2C349.4,231.5,348.5,230,347.1,230z"/>
	<path class="st9" d="M396.7,266.7l-1.6-5.2c-0.4-1.1-1.6-1.6-2.6-1.1c-2,1-4.4,1.8-7,1.8c-7.5,0-11.5-5.5-11.5-11.9
		c0-6.4,4.1-11.8,11.5-11.8c2.6,0,4.9,0.8,6.8,1.7c1,0.5,2.3,0,2.6-1.1l1.6-5.1c0.3-0.8-0.1-1.7-0.8-2.2c-2.7-1.6-6.2-2.6-10.6-2.6
		c-12.7,0-21.5,9.1-21.5,21.1c0,12,8.4,21.2,21.5,21.2c4.4,0,8-1.1,10.8-2.6C396.7,268.4,397,267.5,396.7,266.7z"/>
	<path class="st9" d="M436.8,268.3l-12.8-37c-0.3-0.8-1-1.3-1.8-1.3h-7.8c-0.8,0-1.5,0.5-1.8,1.3l-12.8,37c-0.4,1.2,0.5,2.5,1.8,2.5
		h6c0.8,0,1.5-0.5,1.8-1.3l2.1-6.6c0.3-0.8,1-1.3,1.8-1.3h10.1c0.8,0,1.5,0.5,1.8,1.3l2.1,6.6c0.3,0.8,1,1.3,1.8,1.3h6
		C436.4,270.7,437.3,269.5,436.8,268.3z M419.7,253.4H417c-1.2,0-2.1-1.2-1.8-2.4l1.4-4.5c0.5-1.8,3-1.8,3.6,0l1.3,4.5
		C421.9,252.2,421,253.4,419.7,253.4z"/>
	<path class="st9" d="M471.4,268c-4.3-7.9-6.2-11.6-7.1-13.3c-0.4-0.8-0.2-1.8,0.5-2.3c2.9-2.2,4.3-6,4.3-9.9
		c0-8.1-4.7-12.5-14.3-12.5h-11.4c-1,0-1.9,0.8-1.9,1.9v37c0,1,0.8,1.9,1.9,1.9h6.2c1,0,1.9-0.8,1.9-1.9v-11.4c0-1,0.8-1.8,1.9-1.8
		c0.7,0,1.4,0.4,1.7,1l6.3,13c0.3,0.6,1,1,1.7,1h6.7C471.2,270.7,472.1,269.2,471.4,268z M454.6,247.3h-1.1c-1,0-1.9-0.8-1.9-1.9
		v-5.1c0-1,0.8-1.9,1.9-1.9h0.6c3.6,0,4.9,1.6,4.9,4.3C459,245.6,457.3,247.3,454.6,247.3z"/>
	<path class="st9" d="M488.9,230h-10.1c-1,0-1.9,0.8-1.9,1.9v37c0,1,0.8,1.9,1.9,1.9h6.6c0.8,0,1.5-0.7,1.5-1.5v-28.7
		c0-1,0.8-1.9,1.9-1.9h0.2c6.7,0,11.1,4,11.1,11.8c0,3.5-0.9,6.2-2.5,8.2c-0.7,0.9-0.7,2.1,0.1,2.9l3.8,3.8c0.8,0.8,2.2,0.9,3,0.1
		c3.8-3.5,5.9-8.6,5.9-15C510.3,237.6,502,230,488.9,230z"/>
</g>
<path class="st9" d="M479.3,252.8"/>
</svg>
